# xmcd CD database file
#
# Track frame offsets:
#	150
#	21303
#	45505
#	66406
#	85095
#	99699
#	117923
#	139210
#	158817
#	191300
#	210290
#	224577
#	246101
#	263257
#	287301
#	301328
#
# Disc length: 4253 seconds
#
# Revision: 0
# Processed by: cddbd v1.5.2PL0 Copyright (c) Steve Scherf et al.
# Submitted via: CDex 1.70beta2
#
DISCID=d9109b10
DTITLE=Jean Shy - Still Swingin' (After All These Years)
DYEAR=2001
DGENRE=Jazz
TTITLE0=Lover, Come Back to Me
TTITLE1=A - Tisket, a - Tasket
TTITLE2=Chattanooga Choo Choo
TTITLE3=Goody, Goody
TTITLE4=Stone Cold Dead in the Market
TTITLE5=Mack the Knife
TTITLE6=The Pink Panther
TTITLE7=I Got Rhythm
TTITLE8=Willow Weep for Me
TTITLE9=Choo Choo Ch' Boogie
TTITLE10=Cow Cow Boogie
TTITLE11=The Lady is a Tramp
TTITLE12=Cute
TTITLE13=Lullaby of Birdland
TTITLE14=It Doesn't Mean a Thing
TTITLE15=Can't Buy Me Love
EXTD=YEAR: 2001
EXTT0=
EXTT1=
EXTT2=
EXTT3=
EXTT4=
EXTT5=
EXTT6=
EXTT7=
EXTT8=
EXTT9=
EXTT10=
EXTT11=
EXTT12=
EXTT13=
EXTT14=
EXTT15=
PLAYORDER=
